<?xml version="1.0" standalone="no"?><!DOCTYPE svg PUBLIC "-//W3C//DTD SVG 1.1//EN" "http://www.w3.org/Graphics/SVG/1.1/DTD/svg11.dtd"><svg t="1527030437873" class="icon" style="" viewBox="0 0 1024 1024" version="1.1" xmlns="http://www.w3.org/2000/svg" p-id="2028" xmlns:xlink="http://www.w3.org/1999/xlink" width="200" height="200"><defs><style type="text/css"></style></defs><path d="M1024 524.8c0 114.346667-32.554667 217.216-97.706667 308.565333-65.066667 91.306667-149.162667 154.538667-252.288 189.610667-11.989333 2.304-20.778667 0.682667-26.325333-4.778667a27.605333 27.605333 0 0 1-8.362667-20.48v-144.213333c0-44.16-11.52-76.501333-34.645333-97.024 25.344-2.730667 48.085333-6.826667 68.309333-12.288a268.629333 268.629333 0 0 0 62.72-26.666667 187.434667 187.434667 0 0 0 53.973334-45.44c14.421333-18.005333 26.197333-41.898667 35.328-71.765333 9.088-29.824 13.653333-64.128 13.653333-102.826667 0-55.125333-17.536-102.058667-52.650667-140.8 16.426667-41.429333 14.677333-87.893333-5.333333-139.392-12.458667-4.096-30.464-1.578667-54.016 7.509334a355.328 355.328 0 0 0-61.312 30.08L640 271.274667a462.336 462.336 0 0 0-128-17.749334c-43.989333 0-86.656 5.930667-128 17.749334a589.824 589.824 0 0 0-28.330667-18.432c-11.776-7.253333-30.336-16.042667-55.68-26.325334-25.344-10.24-44.416-13.312-57.301333-9.216-19.584 51.498667-21.12 97.962667-4.693333 139.434667-35.114667 38.698667-52.650667 85.632-52.650667 140.757333 0 38.698667 4.565333 72.874667 13.653333 102.485334 9.130667 29.610667 20.778667 53.546667 34.986667 71.765333 14.250667 18.218667 32.128 33.493333 53.674667 45.781333 21.546667 12.288 42.453333 21.205333 62.677333 26.666667 20.224 5.461333 43.008 9.557333 68.309333 12.288-17.749333 16.384-28.629333 39.850667-32.64 70.4a130.005333 130.005333 0 0 1-29.994666 10.24c-10.666667 2.261333-23.338667 3.413333-37.973334 3.413333-14.72 0-29.269333-4.906667-43.690666-14.677333-14.464-9.813333-26.794667-24.064-36.992-42.709333a109.226667 109.226667 0 0 0-32.341334-35.541334c-13.141333-9.130667-24.106667-14.592-33.024-16.426666l-13.312-2.048c-9.344 0-15.786667 1.024-19.328 3.072-3.584 2.090667-4.693333 4.693333-3.328 7.893333 1.28 3.157333 3.328 6.4 5.973334 9.557333 2.688 3.2 5.546667 5.930667 8.661333 8.192l4.693333 3.413334c9.770667 4.565333 19.413333 13.226667 29.013334 25.984 9.514667 12.757333 16.512 24.362667 20.992 34.858666l6.656 15.701334c5.76 17.322667 15.530667 31.317333 29.312 42.026666 13.781333 10.666667 28.672 17.536 44.672 20.48 16 2.986667 31.445333 4.565333 46.336 4.821334 14.890667 0.213333 27.221333-0.597333 36.992-2.389334l15.36-2.730666c0 17.28 0.085333 37.546667 0.298666 60.8l0.341334 36.906666a27.050667 27.050667 0 0 1-8.661334 20.48c-5.76 5.461333-14.677333 7.082667-26.666666 4.778667-103.125333-35.072-187.221333-98.261333-252.330667-189.610667C32.554667 742.058667 0 639.146667 0 524.8c0-95.232 22.869333-183.04 68.693333-263.466667A516.266667 516.266667 0 0 1 254.976 70.4C333.44 23.466667 419.114667 0 512 0c92.885333 0 178.56 23.466667 256.981333 70.4a516.266667 516.266667 0 0 1 186.368 190.976C1001.130667 341.802667 1024 429.653333 1024 524.842667z" p-id="2029" fill="#ffffff"></path></svg>